# xmcd CD database file
#
# Track frame offsets:
#	150
#	1297
#	8347
#	9607
#	21165
#	23525
#	38797
#	54232
#	55407
#	70615
#	71640
#	86417
#	105260
#	108090
#	118422
#	119560
#	127270
#
# Disc length: 1706 seconds
#
# Revision: 0
# Processed by: cddbd v1.5.2PL0 Copyright (c) Steve Scherf et al.
# Submitted via: CDex 1.70beta2
#
DISCID=d006a811
DTITLE=Original Kokomo Bluesman Phil T. - Station to Station
DYEAR=1999
DGENRE=Blues
TTITLE0=Intro
TTITLE1=I Fell in Love
TTITLE2=Intro
TTITLE3=Funky Time in the City
TTITLE4=Intro
TTITLE5=Beverly Philbilly
TTITLE6=The Last Stand
TTITLE7=Intro
TTITLE8=Say Ya Love Me Baby
TTITLE9=Intro
TTITLE10=Hello Rain Drops
TTITLE11=Come Back
TTITLE12=Intro
TTITLE13='74 Jam
TTITLE14=Intro
TTITLE15=Crescent Moon
TTITLE16=Tom Carey
EXTD=YEAR: 1999
EXTT0=
EXTT1=
EXTT2=
EXTT3=
EXTT4=
EXTT5=
EXTT6=
EXTT7=
EXTT8=
EXTT9=
EXTT10=
EXTT11=
EXTT12=
EXTT13=
EXTT14=
EXTT15=
EXTT16=
PLAYORDER=
